<svg width="46" height="46" viewBox="0 0 46 46" fill="none" xmlns="http://www.w3.org/2000/svg">
<path d="M38.3332 42.1676H34.4999V38.3343C34.4999 36.8093 33.8941 35.3467 32.8158 34.2684C31.7374 33.1901 30.2749 32.5843 28.7499 32.5843H17.2499C15.7249 32.5843 14.2624 33.1901 13.184 34.2684C12.1057 35.3467 11.4999 36.8093 11.4999 38.3343V42.1676H7.66656V38.3343C7.66656 35.7926 8.67623 33.3551 10.4735 31.5578C12.2707 29.7606 14.7082 28.7509 17.2499 28.7509H28.7499C31.2916 28.7509 33.7291 29.7606 35.5263 31.5578C37.3236 33.3551 38.3332 35.7926 38.3332 38.3343V42.1676ZM22.9999 24.9176C21.4897 24.9176 19.9943 24.6201 18.599 24.0422C17.2038 23.4643 15.936 22.6172 14.8682 21.5493C13.8003 20.4815 12.9532 19.2137 12.3753 17.8185C11.7974 16.4232 11.4999 14.9278 11.4999 13.4176C11.4999 11.9074 11.7974 10.412 12.3753 9.01674C12.9532 7.6215 13.8003 6.35375 14.8682 5.28587C15.936 4.218 17.2038 3.37092 18.599 2.79299C19.9943 2.21506 21.4897 1.9176 22.9999 1.9176C26.0499 1.9176 28.975 3.12921 31.1316 5.28587C33.2883 7.44254 34.4999 10.3676 34.4999 13.4176C34.4999 16.4676 33.2883 19.3927 31.1316 21.5493C28.975 23.706 26.0499 24.9176 22.9999 24.9176ZM22.9999 21.0843C25.0332 21.0843 26.9833 20.2765 28.4211 18.8388C29.8588 17.401 30.6666 15.4509 30.6666 13.4176C30.6666 11.3843 29.8588 9.43423 28.4211 7.99645C26.9833 6.55867 25.0332 5.75094 22.9999 5.75094C20.9666 5.75094 19.0165 6.55867 17.5787 7.99645C16.141 9.43423 15.3332 11.3843 15.3332 13.4176C15.3332 15.4509 16.141 17.401 17.5787 18.8388C19.0165 20.2765 20.9666 21.0843 22.9999 21.0843Z" fill="#EC1D24"/>
</svg>
