<svg width="300" height="118" viewBox="0 0 300 118" fill="none" xmlns="http://www.w3.org/2000/svg">
<path d="M0 0H300V117.6H0V0Z" fill="#EC1D24"/>
<path d="M288.068 90.5949V108.475H254.791V9.04614H272.711V90.5949H288.068ZM145.877 57.8026C144.491 58.4675 143.041 58.7977 141.627 58.8022V26.8241H141.718C143.132 26.8128 153.682 27.2402 153.682 42.639C153.682 50.6878 150.091 55.765 145.877 57.8026ZM93.3591 77.4351L98.3204 34.9204L103.468 77.4351H93.3591ZM251.666 27.195V9.06197H200.925L192.573 69.6237L184.323 9.05971H166.023L168.07 25.2297C165.961 21.0866 158.47 9.05971 141.98 9.05971C141.873 9.05519 123.661 9.05971 123.661 9.05971L123.591 97.3321L110.255 9.06197L86.2886 9.05067L72.4886 100.507L72.4932 9.06197H49.5591L41.2909 60.4373L33.2363 9.05971H10.2909V108.491H28.3591V60.564L36.5818 108.491H46.1863L54.2886 60.564V108.491H89.1227L91.2318 93.198H105.255L107.361 108.491L141.559 108.509H141.582V108.491H141.627V76.2184L145.82 75.6077L154.495 108.513H172.186L172.182 108.491H172.232L160.843 69.9358C166.611 65.6841 173.13 54.9101 171.395 44.5998V44.5953C171.414 44.7264 182.143 108.554 182.143 108.554L203.18 108.493L217.559 18.3705V108.493H251.666V90.6085H235.475V67.8122H251.666V49.6521H235.475V27.1927L251.666 27.195Z" fill="#FEFEFE"/>
</svg>
